<svg width="22" height="18" viewBox="0 0 22 18" fill="none" xmlns="http://www.w3.org/2000/svg">
<path d="M19.7386 4.51906C19.7525 4.71449 19.7525 4.90995 19.7525 5.10537C19.7525 11.066 15.2157 17.934 6.92386 17.934C4.36928 17.934 1.9962 17.1942 0 15.9099C0.362957 15.9518 0.711906 15.9658 1.08883 15.9658C3.19666 15.9658 5.13704 15.2539 6.68654 14.0394C4.7043 13.9975 3.04313 12.6993 2.47079 10.9125C2.75 10.9543 3.02917 10.9823 3.32234 10.9823C3.72715 10.9823 4.132 10.9264 4.50888 10.8287C2.4429 10.4099 0.893363 8.59521 0.893363 6.40359V6.34777C1.49359 6.6828 2.19162 6.89218 2.93141 6.92007C1.71695 6.11041 0.921293 4.72845 0.921293 3.16499C0.921293 2.32744 1.1446 1.55968 1.53549 0.889622C3.75504 3.62566 7.09135 5.41243 10.8324 5.60789C10.7626 5.27286 10.7207 4.92392 10.7207 4.57492C10.7207 2.09013 12.7309 0.06604 15.2296 0.06604C16.5278 0.06604 17.7004 0.610454 18.524 1.4899C19.543 1.29447 20.5202 0.917552 21.3857 0.401067C21.0506 1.44804 20.3387 2.32749 19.4035 2.88582C20.3109 2.78815 21.1903 2.53683 21.9999 2.18788C21.3858 3.08124 20.618 3.8769 19.7386 4.51906Z" fill="#0065FF"/>
</svg>
