<svg width="13" height="18" viewBox="0 0 13 18" fill="none" xmlns="http://www.w3.org/2000/svg">
<path d="M9.37757 6.00117C10.1439 6.00117 10.8788 5.68504 11.4207 5.12232C11.9626 4.5596 12.267 3.79639 12.267 3.00059C12.267 2.20478 11.9626 1.44157 11.4207 0.878851C10.8788 0.316132 10.1439 0 9.37757 0L3.59866 0C2.83278 0 2.09827 0.315947 1.55671 0.878336C1.01515 1.44073 0.710906 2.20349 0.710906 2.99883C0.710906 3.79417 1.01515 4.55693 1.55671 5.11932C2.09827 5.68171 2.83278 5.99766 3.59866 5.99766C2.83233 5.99766 2.09739 6.31379 1.55551 6.87651C1.01364 7.43923 0.709213 8.20244 0.709213 8.99824C0.709213 9.79405 1.01364 10.5573 1.55551 11.12C2.09739 11.6827 2.83233 11.9988 3.59866 11.9988C3.02718 11.9985 2.46844 12.1741 1.99309 12.5035C1.51773 12.833 1.14712 13.3014 0.928115 13.8495C0.70911 14.3977 0.651549 15.0009 0.762711 15.5831C0.873873 16.1652 1.14876 16.7 1.55262 17.1199C1.95649 17.5398 2.47117 17.8259 3.03161 17.942C3.59204 18.0581 4.17305 17.9991 4.70115 17.7723C5.22926 17.5455 5.68075 17.1612 5.99852 16.6679C6.3163 16.1747 6.48609 15.5946 6.48642 15.0012V6.00117H9.37757ZM9.37757 6.00117C8.80642 6.00117 8.2481 6.17705 7.77321 6.50657C7.29832 6.83608 6.92819 7.30443 6.70962 7.8524C6.49106 8.40036 6.43387 9.00333 6.5453 9.58504C6.65672 10.1668 6.93175 10.7011 7.33561 11.1205C7.73947 11.5399 8.25402 11.8255 8.81419 11.9412C9.37436 12.0569 9.95499 11.9975 10.4827 11.7706C11.0103 11.5436 11.4613 11.1592 11.7786 10.6661C12.096 10.1729 12.2653 9.59311 12.2653 9C12.2652 8.20469 11.961 7.44198 11.4194 6.87961C10.8779 6.31724 10.1434 6.00127 9.37757 6.00117Z" fill="#0065FF"/>
</svg>
