<svg width="16" height="16" viewBox="0 0 16 16" fill="none" xmlns="http://www.w3.org/2000/svg">
<path d="M8.00356 3.95702C5.73213 3.95702 3.89999 5.76053 3.89999 7.99647C3.89999 10.2324 5.73213 12.0359 8.00356 12.0359C10.275 12.0359 12.1071 10.2324 12.1071 7.99647C12.1071 5.76053 10.275 3.95702 8.00356 3.95702ZM8.00356 10.6226C6.5357 10.6226 5.3357 9.44491 5.3357 7.99647C5.3357 6.54803 6.53213 5.3703 8.00356 5.3703C9.47499 5.3703 10.6714 6.54803 10.6714 7.99647C10.6714 9.44491 9.47142 10.6226 8.00356 10.6226ZM13.2321 3.79178C13.2321 4.31561 12.8036 4.73397 12.275 4.73397C11.7428 4.73397 11.3178 4.3121 11.3178 3.79178C11.3178 3.27147 11.7464 2.8496 12.275 2.8496C12.8036 2.8496 13.2321 3.27147 13.2321 3.79178ZM15.95 4.74803C15.8893 3.48592 15.5964 2.36796 14.6571 1.44686C13.7214 0.525769 12.5857 0.237488 11.3036 0.174207C9.98213 0.100378 6.02142 0.100378 4.69999 0.174207C3.42142 0.233972 2.28571 0.522253 1.34642 1.44335C0.407136 2.36444 0.11785 3.48241 0.0535644 4.74452C-0.0214355 6.0453 -0.0214355 9.94413 0.0535644 11.2449C0.114279 12.507 0.407136 13.625 1.34642 14.5461C2.28571 15.4672 3.41785 15.7555 4.69999 15.8187C6.02142 15.8926 9.98213 15.8926 11.3036 15.8187C12.5857 15.759 13.7214 15.4707 14.6571 14.5461C15.5928 13.625 15.8857 12.507 15.95 11.2449C16.025 9.94413 16.025 6.04882 15.95 4.74803ZM14.2428 12.6406C13.9643 13.3297 13.425 13.8605 12.7214 14.1383C11.6678 14.5496 9.16784 14.4547 8.00356 14.4547C6.83927 14.4547 4.3357 14.5461 3.28571 14.1383C2.58571 13.864 2.04642 13.3332 1.76428 12.6406C1.34642 11.6035 1.44285 9.14256 1.44285 7.99647C1.44285 6.85038 1.34999 4.38592 1.76428 3.35233C2.04285 2.66327 2.58213 2.13241 3.28571 1.85467C4.33928 1.44335 6.83927 1.53827 8.00356 1.53827C9.16784 1.53827 11.6714 1.44686 12.7214 1.85467C13.4214 2.12889 13.9607 2.65975 14.2428 3.35233C14.6607 4.38944 14.5643 6.85038 14.5643 7.99647C14.5643 9.14256 14.6607 11.607 14.2428 12.6406Z" fill="#0065FF"/>
</svg>
